HIERARCHY
ROOT Root
{
  OFFSET 6.90105 11.8871 -0.957331
  CHANNELS 6 Xposition Yposition Zposition Zrotation Xrotation Yrotation
  JOINT Spine
  {
    OFFSET 5.3114 0 0
    CHANNELS 3 Zrotation Xrotation Yrotation
    JOINT Spine1
    {
      OFFSET 2.79004 0 0
      CHANNELS 3 Zrotation Xrotation Yrotation
      JOINT Neck
      {
        OFFSET 1.43377 0 0
        CHANNELS 3 Zrotation Xrotation Yrotation
        JOINT Head
        {
          OFFSET 1.86043 0 0
          CHANNELS 3 Zrotation Xrotation Yrotation
          End Site
          {
            OFFSET 0 0 0
          }
        }
      }
      JOINT LeftArm
      {
        OFFSET 0.0387506 0 2.55754
        CHANNELS 3 Zrotation Xrotation Yrotation
        JOINT LeftForeArm
        {
          OFFSET 4.24845 0 0
          CHANNELS 3 Zrotation Xrotation Yrotation
          JOINT LeftHand
          {
            OFFSET 4.01008 0 0
            CHANNELS 3 Zrotation Xrotation Yrotation
            End Site
            {
              OFFSET 0 0 0
            }
          }
        }
      }
      JOINT RightArm
      {
        OFFSET 0.0387506 0 -2.55754
        CHANNELS 3 Zrotation Xrotation Yrotation
        JOINT RightForeArm
        {
          OFFSET -4.24845 0 0
          CHANNELS 3 Zrotation Xrotation Yrotation
          JOINT RightHand
          {
            OFFSET -4.01009 0 0
            CHANNELS 3 Zrotation Xrotation Yrotation
            End Site
            {
              OFFSET 0 0 0
            }
          }
        }
      }
    }
  }
  JOINT LeftUpLeg
  {
    OFFSET -1.23318 0 2.05692
    CHANNELS 3 Zrotation Xrotation Yrotation
    JOINT LeftLeg
    {
      OFFSET 5.46397 0 0
      CHANNELS 3 Zrotation Xrotation Yrotation
      JOINT LeftFoot
      {
        OFFSET 4.68898 0 0
        CHANNELS 3 Zrotation Xrotation Yrotation
        End Site
        {
          OFFSET 0 0 0
        }
      }
    }
  }
  JOINT RightUpLeg
  {
    OFFSET -1.24454 0 -2.05007
    CHANNELS 3 Zrotation Xrotation Yrotation
    JOINT RightLeg
    {
      OFFSET -5.46397 0 0
      CHANNELS 3 Zrotation Xrotation Yrotation
      JOINT RightFoot
      {
        OFFSET -4.68901 0 0
        CHANNELS 3 Zrotation Xrotation Yrotation
        End Site
        {
          OFFSET 0 0 0
        }
      }
    }
  }
}
MOTION
Frames:	10
Frame Time:	0.00833333
6.90105 11.8871 -0.957331 -0 90 90 9.69808e-018 1.34041e-020 0.158382 1.41245e-030 7.06225e-031 2.48481e-017 -7.30747e-017 7.61111e-019 -1.19349 3.40995e-017 1.65719e-019 0.556895 -2.12238e-008 -1.53545e-005 -90.1584 -2.50273e-005 -2.47192e-012 6.55612e-006 1.52588e-005 -6.98387e-015 174.455 180 -4.60993e-005 -89.8417 -5.49628e-005 -2.25992e-011 3.612e-005 1.52588e-005 6.98387e-015 174.455 -3.94791 -0.248796 -175.995 -8.56334 0.17593 -0.870008 4.60942 -0.0775208 176.868 177.984 -0.125371 -176.036 -4.37326 0.0836638 -0.877309 2.35438 -0.0332512 176.598 
6.86899 11.8887 -1.10786 92.0664 63.2044 0.934004 -1.76306 -0.0690036 0.348407 1.75257 0.0229629 0.836126 -5.15483 0.466869 -1.32262 8.99857 0.657454 -0.401834 8.31656 -3.70595 -112.313 7.95528 0.481279 4.53734 -0.398508 -4.5432 174.443 178.553 0.651405 -113.24 6.68457 0.247757 3.8529 0.443183 5.04915 174.441 -8.51651 -0.0402855 -176.748 -18.5352 -0.180486 -1.05556 10.9622 0.177587 176.936 171.523 -1.50934 -178.04 -13.3636 -0.188006 -1.03004 0.269755 4.0107 177.054 
6.83597 11.8907 -1.26578 95.3604 34.8648 1.05813 -3.63526 -0.147443 0.540444 3.60579 0.045788 1.72352 -10.6006 0.964249 -1.46001 18.5461 1.35589 -1.42617 12.7407 -14.2535 -134.567 16.2849 0.980498 9.33624 -0.825036 -9.34697 174.393 177.852 2.52834 -137.93 13.7155 0.506017 7.92643 0.91935 10.3933 174.378 -13.2919 0.177424 -177.556 -28.988 -0.556786 -1.2494 17.7013 0.456624 177.003 164.584 -2.98302 179.845 -22.8619 -0.474901 -1.19133 -2.01454 8.28129 177.527 
6.80487 11.892 -1.40892 98.4861 9.62 1.28115 -5.28781 -0.206998 0.728461 5.25571 0.06883 2.50838 -15.4582 1.40045 -1.58122 27.0617 1.9708 -2.32059 10.1053 -26.6379 -154.644 23.6395 1.40769 13.6157 -1.21524 -13.6288 174.313 178.496 4.62269 -159.994 19.9546 0.729845 11.5595 1.35671 15.1463 174.279 -17.6372 0.377583 -178.256 -38.4858 -0.893174 -1.42683 23.6659 0.687899 177.071 158.31 -4.27657 177.945 -31.3487 -0.731258 -1.3356 -4.09053 12.107 177.943 
6.77852 11.8913 -1.51514 100.821 -7.89441 1.54219 -6.39233 -0.219354 0.906425 6.3986 0.0924631 3.03692 -18.8502 1.68381 -1.66167 32.9491 2.37862 -2.88886 3.15764 -35.0778 -170.512 28.7156 1.68936 16.593 -1.49516 -16.6066 174.236 179.718 5.81484 -175.496 24.2839 0.880389 14.0906 1.66994 18.4226 174.184 -20.9191 0.533383 -178.683 -45.5915 -1.12989 -1.56308 27.6957 0.799707 177.138 153.906 -5.12522 176.593 -37.3036 -0.911337 -1.4372 -5.51151 14.8154 178.227 
6.75929 11.8875 -1.56961 101.786 -14.5853 1.65941 -6.73027 -0.167858 1.08007 6.8326 0.116167 3.20074 -20.1967 1.75145 -1.68104 35.1293 2.49499 -3.00391 -1.00604 -38.0633 -177.486 30.663 1.78971 17.7411 -1.60642 -17.7642 174.202 -179.714 5.94004 178.268 25.9494 0.933908 15.067 1.78741 19.6194 174.144 -22.7214 0.632178 -178.724 -49.3596 -1.22698 -1.64163 28.9922 0.761496 177.2 152.201 -5.35044 176.013 -39.7187 -0.984841 -1.47924 -5.9558 15.9593 178.323 
6.74512 11.8815 -1.58711 101.679 -13.5476 1.59591 -6.52115 -0.0706567 1.25017 6.76051 0.139978 3.10433 -20.0824 1.66512 -1.65694 34.6583 2.40357 -2.79481 -0.586801 -37.9847 -176.675 30.3912 1.76735 17.5822 -1.59275 -17.6215 174.206 -179.883 5.47493 178.679 25.7202 0.920814 14.9333 1.75903 19.3319 174.153 -23.4682 0.689977 -178.488 -50.7426 -1.22435 -1.67893 28.3378 0.61529 177.257 152.447 -5.13327 175.989 -39.6047 -0.98222 -1.4787 -5.68838 15.9853 178.284 
6.73226 11.8752 -1.58992 101.145 -9.42991 1.46927 -6.09362 0.0483618 1.40323 6.48562 0.165109 2.9132 -19.3765 1.52007 -1.62167 33.139 2.23344 -2.4492 1.70881 -36.6319 -172.746 29.2425 1.69804 16.9068 -1.52831 -16.9513 174.226 179.716 4.72203 -178.224 24.765 0.886274 14.3738 1.6747 18.4712 174.182 -23.7868 0.723003 -178.152 -51.1497 -1.18209 -1.69969 26.9439 0.398231 177.323 153.485 -4.75182 176.187 -38.4692 -0.948866 -1.46084 -5.1358 15.5622 178.191 
6.71696 11.8704 -1.60031 100.818 -6.88103 1.39481 -5.77593 0.165319 1.5258 6.31094 0.192763 2.79288 -18.9485 1.41161 -1.6075 32.172 2.11389 -2.15459 2.96277 -35.755 -170.489 28.5594 1.65749 16.5055 -1.48748 -16.526 174.239 179.506 3.96925 -176.394 24.2529 0.875492 14.073 1.62398 17.9486 174.198 -24.3037 0.747526 -177.894 -51.9903 -1.16025 -1.72863 26.0218 0.147462 177.408 154.163 -4.48409 176.277 -37.8199 -0.930169 -1.4509 -4.72487 15.3588 178.125 
6.69866 11.8675 -1.62222 100.777 -6.68034 1.38166 -5.61123 0.277045 1.60922 6.287 0.223724 2.78112 -18.9371 1.35848 -1.62951 32.0123 2.07236 -1.93065 2.90939 -35.7371 -170.573 28.566 1.65879 16.5092 -1.48036 -16.4576 174.241 179.482 3.25676 -176.473 24.4016 0.899734 14.1574 1.62391 17.9467 174.198 -25.1133 0.765731 -177.738 -53.5167 -1.16901 -1.77054 25.7862 -0.143882 177.519 154.299 -4.37436 176.205 -37.907 -0.933631 -1.45298 -4.53291 15.4934 178.1 
